g Elevator_Frame
v -0.00538 0.01988 -4.897919E-05
v 0.00538 0.01988 -0.001048979
v -0.00538 0.01988 -0.001048979
v 0.00538 0.01988 -4.897919E-05
v 0.00538 0 -4.897919E-05
v 0.00538 0.01988 -0.001048979
v 0.00538 0.01988 -4.897919E-05
v 0.00538 0 -0.001048979
v -0.00538 0 -0.001048979
v -0.00538 0.01988 -4.897919E-05
v -0.00538 0.01988 -0.001048979
v -0.00538 0 -4.897919E-05
v -0.00595 0.02045 3.799591E-05
v 0.00595 0.02045 -0.001135953
v 0.00595 0.02045 3.799591E-05
v -0.00595 0.02045 -0.001135953
v 0.00595 0 3.799591E-05
v 0.00595 0.02045 -0.001135953
v 0.00595 0 -0.001135953
v 0.00595 0.02045 3.799591E-05
v -0.00595 0 -0.001135953
v -0.00595 0.02045 3.799591E-05
v -0.00595 0 3.799591E-05
v -0.00595 0.02045 -0.001135953
v -0.00538 0.01988 -4.897919E-05
v 0.0055 0.02 3.799591E-05
v 0.00538 0.01988 -4.897919E-05
v -0.0055 0.02 3.799591E-05
v 0.00538 0.01988 -0.001048979
v -0.0055 0.02 -0.001135953
v -0.00538 0.01988 -0.001048979
v 0.0055 0.02 -0.001135953
v 0.00538 0 -0.001048979
v 0.0055 0.02 -0.001135953
v 0.00538 0.01988 -0.001048979
v 0.0055 0 -0.001135953
v 0.00538 0.01988 -4.897919E-05
v 0.0055 0 3.799591E-05
v 0.00538 0 -4.897919E-05
v 0.0055 0.02 3.799591E-05
v -0.00538 0 -4.897919E-05
v -0.0055 0.02 3.799591E-05
v -0.00538 0.01988 -4.897919E-05
v -0.0055 0 3.799591E-05
v -0.00538 0.01988 -0.001048979
v -0.0055 0 -0.001135953
v -0.00538 0 -0.001048979
v -0.0055 0.02 -0.001135953
v -0.00595 0.02045 -0.001135953
v 0.0055 0.02 -0.001135953
v 0.00595 0.02045 -0.001135953
v -0.0055 0.02 -0.001135953
v 0.00595 0.02045 3.799591E-05
v -0.0055 0.02 3.799591E-05
v -0.00595 0.02045 3.799591E-05
v 0.0055 0.02 3.799591E-05
v 0.00595 0 3.799591E-05
v 0.0055 0.02 3.799591E-05
v 0.00595 0.02045 3.799591E-05
v 0.0055 0 3.799591E-05
v 0.00595 0.02045 -0.001135953
v 0.0055 0 -0.001135953
v 0.00595 0 -0.001135953
v 0.0055 0.02 -0.001135953
v -0.00595 0 -0.001135953
v -0.0055 0.02 -0.001135953
v -0.00595 0.02045 -0.001135953
v -0.0055 0 -0.001135953
v -0.00595 0.02045 3.799591E-05
v -0.0055 0 3.799591E-05
v -0.00595 0 3.799591E-05
v -0.0055 0.02 3.799591E-05
vt 0.984375 0.19628906
vt 0.9633789 0.42211914
vt 0.9633789 0.19628906
vt 0.984375 0.42211914
vt 0.984375 0.0041389465
vt 0.9633789 0.421875
vt 0.984375 0.421875
vt 0.9633789 0.0041389465
vt 0.9633789 0.0041389465
vt 0.984375 0.421875
vt 0.9633789 0.421875
vt 0.984375 0.0041389465
vt 0.92626953 0.18432617
vt 0.9511719 0.43408203
vt 0.92626953 0.43408203
vt 0.9511719 0.18432617
vt 0.92626953 0.0041389465
vt 0.9511719 0.4338379
vt 0.9511719 0.0041389465
vt 0.92626953 0.4338379
vt 0.9511719 0.0041389465
vt 0.92626953 0.4338379
vt 0.92626953 0.0041389465
vt 0.9511719 0.4338379
vt 0.984375 0.19628906
vt 0.98779297 0.4248047
vt 0.984375 0.42211914
vt 0.98779297 0.19372559
vt 0.9633789 0.42211914
vt 0.9604492 0.19372559
vt 0.9633789 0.19628906
vt 0.9604492 0.4248047
vt 0.9633789 0.0041389465
vt 0.9604492 0.4243164
vt 0.9633789 0.421875
vt 0.9604492 0.0041389465
vt 0.984375 0.421875
vt 0.98779297 0.0041389465
vt 0.984375 0.0041389465
vt 0.98779297 0.4243164
vt 0.984375 0.0041389465
vt 0.98779297 0.4243164
vt 0.984375 0.421875
vt 0.98779297 0.0041389465
vt 0.9633789 0.421875
vt 0.9604492 0.0041389465
vt 0.9633789 0.0041389465
vt 0.9604492 0.4243164
vt 0.9511719 0.18432617
vt 0.9604492 0.4248047
vt 0.9511719 0.43408203
vt 0.9604492 0.19372559
vt 0.9970703 0.43408203
vt 0.98779297 0.19372559
vt 0.9970703 0.18432617
vt 0.98779297 0.4248047
vt 0.9970703 0.0041389465
vt 0.98779297 0.4243164
vt 0.9970703 0.4338379
vt 0.98779297 0.0041389465
vt 0.9511719 0.4338379
vt 0.9604492 0.0041389465
vt 0.9511719 0.0041389465
vt 0.9604492 0.4243164
vt 0.9511719 0.0041389465
vt 0.9604492 0.4243164
vt 0.9511719 0.4338379
vt 0.9604492 0.0041389465
vt 0.9970703 0.4338379
vt 0.98779297 0.0041389465
vt 0.9970703 0.0041389465
vt 0.98779297 0.4243164
vn -0 -1 0
vn -0 -1 0
vn -0 -1 0
vn -0 -1 0
vn -1 0 0
vn -1 0 0
vn -1 0 0
vn -1 0 0
vn 1 0 0
vn 1 0 0
vn 1 0 0
vn 1 0 0
vn -0 1 0
vn -0 1 0
vn -0 1 0
vn -0 1 0
vn 1 0 0
vn 1 0 0
vn 1 0 0
vn 1 0 0
vn -1 0 0
vn -1 0 0
vn -1 0 0
vn -1 0 0
vn 0.41357422 -0.22570801 0.88183594
vn -0.41357422 -0.22570801 0.88183594
vn -0.41357422 -0.22570801 0.88183594
vn 0.41357422 -0.22570801 0.88183594
vn -0.41357422 -0.22570801 -0.88183594
vn 0.41357422 -0.22570801 -0.88183594
vn 0.41357422 -0.22570801 -0.88183594
vn -0.41357422 -0.22570801 -0.88183594
vn -0.58691406 0 -0.8095703
vn -0.41357422 -0.22570801 -0.88183594
vn -0.41357422 -0.22570801 -0.88183594
vn -0.58691406 0 -0.8095703
vn -0.41357422 -0.22570801 0.88183594
vn -0.58691406 0 0.8095703
vn -0.58691406 0 0.8095703
vn -0.41357422 -0.22570801 0.88183594
vn 0.58691406 0 0.8095703
vn 0.41357422 -0.22570801 0.88183594
vn 0.41357422 -0.22570801 0.88183594
vn 0.58691406 0 0.8095703
vn 0.41357422 -0.22570801 -0.88183594
vn 0.58691406 0 -0.8095703
vn 0.58691406 0 -0.8095703
vn 0.41357422 -0.22570801 -0.88183594
vn -0 0 -1
vn -0 0 -1
vn -0 0 -1
vn -0 0 -1
vn -0 0 1
vn -0 0 1
vn -0 0 1
vn -0 0 1
vn -0 0 1
vn -0 0 1
vn -0 0 1
vn -0 0 1
vn -0 0 -1
vn -0 0 -1
vn -0 0 -1
vn -0 0 -1
vn -0 0 -1
vn -0 0 -1
vn -0 0 -1
vn -0 0 -1
vn -0 0 1
vn -0 0 1
vn -0 0 1
vn -0 0 1
g Elevator_Frame_0
f 3/3/3 2/2/2 1/1/1
f 1/1/1 2/2/2 4/4/4
f 7/7/7 6/6/6 5/5/5
f 5/5/5 6/6/6 8/8/8
f 11/11/11 10/10/10 9/9/9
f 9/9/9 10/10/10 12/12/12
f 15/15/15 14/14/14 13/13/13
f 13/13/13 14/14/14 16/16/16
f 19/19/19 18/18/18 17/17/17
f 17/17/17 18/18/18 20/20/20
f 23/23/23 22/22/22 21/21/21
f 21/21/21 22/22/22 24/24/24
f 27/27/27 26/26/26 25/25/25
f 25/25/25 26/26/26 28/28/28
f 31/31/31 30/30/30 29/29/29
f 29/29/29 30/30/30 32/32/32
f 35/35/35 34/34/34 33/33/33
f 33/33/33 34/34/34 36/36/36
f 39/39/39 38/38/38 37/37/37
f 37/37/37 38/38/38 40/40/40
f 43/43/43 42/42/42 41/41/41
f 41/41/41 42/42/42 44/44/44
f 47/47/47 46/46/46 45/45/45
f 45/45/45 46/46/46 48/48/48
f 51/51/51 50/50/50 49/49/49
f 49/49/49 50/50/50 52/52/52
f 55/55/55 54/54/54 53/53/53
f 53/53/53 54/54/54 56/56/56
f 59/59/59 58/58/58 57/57/57
f 57/57/57 58/58/58 60/60/60
f 63/63/63 62/62/62 61/61/61
f 61/61/61 62/62/62 64/64/64
f 67/67/67 66/66/66 65/65/65
f 65/65/65 66/66/66 68/68/68
f 71/71/71 70/70/70 69/69/69
f 69/69/69 70/70/70 72/72/72
