g Elevator_Floor
v -0.009 -0.0009999998 0
v 0.009 -0.0009999998 -0.019
v -0.009 -0.0009999998 -0.019
v 0.009 -0.0009999998 0
v -0.009 0 0
v 0.009 0 -0.019
v 0.009 0 0
v -0.009 0 -0.019
v 0.009 -0.0009999998 0
v 0.009 0 -0.019
v 0.009 -0.0009999998 -0.019
v 0.009 0 0
v -0.009 -0.0009999998 0
v 0.009 0 0
v 0.009 -0.0009999998 0
v -0.009 0 0
v -0.009 -0.0009999998 -0.019
v -0.009 0 0
v -0.009 -0.0009999998 0
v -0.009 0 -0.019
v 0.009 -0.0009999998 -0.019
v -0.009 0 -0.019
v -0.009 -0.0009999998 -0.019
v 0.009 0 -0.019
vt 0.0033550262 0.0042381287
vt 0.4189453 0.39892578
vt 0.4189453 0.0042381287
vt 0.0033550262 0.39892578
vt 0.0033550262 0.39892578
vt 0.4189453 0.0042381287
vt 0.0033550262 0.0042381287
vt 0.4189453 0.39892578
vt 0.0033550262 0.37695312
vt 0.4189453 0.39892578
vt 0.4189453 0.37695312
vt 0.0033550262 0.39892578
vt 0.39648438 0.39892578
vt 0.4189453 0.0042381287
vt 0.39648438 0.0042381287
vt 0.4189453 0.39892578
vt 0.4189453 0.026062012
vt 0.0033550262 0.0042381287
vt 0.0033550262 0.026062012
vt 0.4189453 0.0042381287
vt 0.02571106 0.0042381287
vt 0.0033550262 0.39892578
vt 0.02571106 0.39892578
vt 0.0033550262 0.0042381287
vn -0 -1 0
vn -0 -1 0
vn -0 -1 0
vn -0 -1 0
vn -0 1 0
vn -0 1 0
vn -0 1 0
vn -0 1 0
vn 1 0 0
vn 1 0 0
vn 1 0 0
vn 1 0 0
vn -0 0 1
vn -0 0 1
vn -0 0 1
vn -0 0 1
vn -1 0 0
vn -1 0 0
vn -1 0 0
vn -1 0 0
vn -0 0 -1
vn -0 0 -1
vn -0 0 -1
vn -0 0 -1
g Elevator_Floor_0
f 3/3/3 2/2/2 1/1/1
f 1/1/1 2/2/2 4/4/4
f 7/7/7 6/6/6 5/5/5
f 5/5/5 6/6/6 8/8/8
f 11/11/11 10/10/10 9/9/9
f 9/9/9 10/10/10 12/12/12
f 15/15/15 14/14/14 13/13/13
f 13/13/13 14/14/14 16/16/16
f 19/19/19 18/18/18 17/17/17
f 17/17/17 18/18/18 20/20/20
f 23/23/23 22/22/22 21/21/21
f 21/21/21 22/22/22 24/24/24
